# xmcd
#
# Track frame offsets:
#	180
#	19201
#	36574
#	54571
#	73135
#	91775
#	105801
#	125152
#	146569
#	162879
#	180524
#	195881
#
# Disc length: 2811 seconds
#
# Revision: 1
# Processed by: cddbd v1.4PL0 Copyright (c) Steve Scherf et al.
# Submitted via: audiograbber 1.81.02
#
DISCID=9e0af90c
DTITLE=Travis Shredd and the Good Ol' Homeboys - Headbanger's Square Dance
DYEAR=1900
DGENRE=Country
TTITLE0=So What
TTITLE1=Saddle up Da Hawgs
TTITLE2=That's M'Name
TTITLE3=Bang Bang Bang
TTITLE4=Diver Dan
TTITLE5=Here Come Da Train
TTITLE6=Down Wit Da Boys
TTITLE7=Will Ya Still Look Purty
TTITLE8=Corina's Cadillac
TTITLE9=Headbanger's Square Dance
TTITLE10=Rumble Tumble and Twist
TTITLE11=Concussion
EXTD=
EXTT0=
EXTT1=
EXTT2=
EXTT3=
EXTT4=
EXTT5=
EXTT6=
EXTT7=
EXTT8=
EXTT9=
EXTT10=
EXTT11=
PLAYORDER=
